<svg xmlns="http://www.w3.org/2000/svg" width="30" height="30" viewBox="0 0 30 30">
    <path data-name="Rectangle 5322" style="fill:transparent" d="M0 0h30v30H0z"/>
    <g data-name="Group 1168">
        <g data-name="Group 1214">
            <g data-name="Group 1213">
                <path data-name="Path 1709" d="M114.848 0H97.465A1.469 1.469 0 0 0 96 1.465v1.66a.488.488 0 0 0 .977 0v-1.66a.49.49 0 0 1 .488-.488h17.383a.49.49 0 0 1 .488.488v22.07a.49.49 0 0 1-.488.488H97.465a.49.49 0 0 1-.488-.488v-1.577a.488.488 0 0 0-.977 0v1.577A1.469 1.469 0 0 0 97.465 25h17.383a1.469 1.469 0 0 0 1.465-1.465V1.465A1.469 1.469 0 0 0 114.848 0z" transform="translate(-88.312 3)" style="fill:#363d43"/>
            </g>
        </g>
        <g data-name="Group 1216">
            <g data-name="Group 1215">
                <path data-name="Path 1710" d="M196.107 386h-11.719a.488.488 0 1 0 0 .977h11.719a.488.488 0 0 0 0-.977z" transform="translate(-171.921 -364.152)" style="fill:#363d43"/>
            </g>
        </g>
        <g data-name="Group 1218">
            <g data-name="Group 1217">
                <path data-name="Path 1711" d="M424.735 438.142a.483.483 0 0 0-.347-.142.513.513 0 0 0-.347.142.484.484 0 0 0-.142.347.5.5 0 0 0 .142.347.483.483 0 0 0 .347.142.514.514 0 0 0 .347-.142.483.483 0 0 0 .142-.347.5.5 0 0 0-.142-.347z" transform="translate(-400.202 -413.613)" style="fill:#363d43"/>
            </g>
        </g>
        <g data-name="Group 1220">
            <g data-name="Group 1219">
                <path data-name="Path 1712" d="M194.11 438h-9.722a.488.488 0 1 0 0 .977h9.722a.488.488 0 1 0 0-.977z" transform="translate(-171.921 -413.613)" style="fill:#363d43"/>
            </g>
        </g>
        <g data-name="Group 1222">
            <g data-name="Group 1221">
                <path data-name="Path 1713" d="M161.369 87.8a5.268 5.268 0 0 0-3.613 9.1.637.637 0 0 0 .059.054 5.262 5.262 0 0 0 7.119 0 .583.583 0 0 0 .059-.054 5.268 5.268 0 0 0-3.623-9.1zm0 9.561a4.275 4.275 0 0 1-2.656-.923 3.008 3.008 0 0 1 5.312 0 4.285 4.285 0 0 1-2.656.923zm-1.03-4.526v-.381a1.025 1.025 0 0 1 2.051 0v.381a1.025 1.025 0 0 1-2.051 0zm4.4 2.886a3.97 3.97 0 0 0-1.865-1.567 2 2 0 0 0 .5-1.318v-.381a2 2 0 0 0-4 0v.381a2 2 0 0 0 .5 1.318A3.947 3.947 0 0 0 158 95.72a4.292 4.292 0 1 1 6.738 0z" transform="translate(-145.478 -80.513)" style="fill:#363d43"/>
            </g>
        </g>
        <g data-name="Group 1224">
            <g data-name="Group 1223">
                <path data-name="Path 1714" d="M12.891 40A7.6 7.6 0 0 0 8.2 53.579l-5.666 5.669a.911.911 0 0 1-1.289 0 .908.908 0 0 1 0-1.289l2.9-2.9a.487.487 0 0 0-.688-.688l-2.9 2.9a1.88 1.88 0 0 0 0 2.666 1.886 1.886 0 0 0 2.666 0l5.8-5.8A7.6 7.6 0 1 0 12.891 40zm0 14.229a6.626 6.626 0 1 1 6.626-6.629 6.635 6.635 0 0 1-6.626 6.629z" transform="translate(3 -35.047)" style="fill:#363d43"/>
            </g>
        </g>
        <g data-name="Group 1226">
            <g data-name="Group 1225">
                <path data-name="Path 1715" d="M100.035 300.042a.483.483 0 0 0-.347-.142.514.514 0 0 0-.347.142.483.483 0 0 0-.142.347.513.513 0 0 0 .142.347.483.483 0 0 0 .347.142.514.514 0 0 0 .347-.142.483.483 0 0 0 .142-.347.492.492 0 0 0-.142-.347z" transform="translate(-91.356 -282.256)" style="fill:#363d43"/>
            </g>
        </g>
    </g>
</svg>
