<svg width="30" height="30" viewBox="0 0 30 30" fill="none" xmlns="http://www.w3.org/2000/svg">
<path d="M26.9485 20.8088C26.6842 19.952 26.1527 19.2023 25.4317 18.6693C24.7107 18.1364 23.8381 17.8481 22.9415 17.8468C22.3747 17.8467 21.8138 17.9613 21.2925 18.1838L17.1815 14.0708L22.6365 8.65577L23.9255 8.62177C24.0018 8.61843 24.0761 8.59633 24.1419 8.55744C24.2076 8.51854 24.2628 8.46405 24.3025 8.39877L26.1515 5.28877C26.204 5.20132 26.2259 5.09885 26.2135 4.99758C26.2012 4.89632 26.1554 4.80206 26.0835 4.72977L24.4835 3.12977C24.4113 3.05764 24.317 3.01176 24.2157 2.99944C24.1144 2.98711 24.0119 3.00906 23.9245 3.06177L20.8145 4.91077C20.7483 4.94948 20.6932 5.00441 20.6541 5.07038C20.6151 5.13634 20.5936 5.21116 20.5915 5.28777L20.5575 6.57677L15.1155 12.0108L11.3895 8.27377C11.5283 7.46927 11.4284 6.64171 11.102 5.8934C10.7756 5.14508 10.2371 4.50882 9.55301 4.06326C8.86892 3.61769 8.06926 3.38237 7.25287 3.38637C6.43649 3.39037 5.63917 3.63352 4.95948 4.08577C4.90966 4.11913 4.86697 4.16208 4.83391 4.2121C4.80085 4.26212 4.77808 4.31822 4.76691 4.37713C4.75574 4.43605 4.7564 4.49659 4.76886 4.55524C4.78132 4.61389 4.80533 4.66948 4.83948 4.71877C4.87914 4.77763 4.93184 4.82656 4.99348 4.86177L7.06548 6.02077C7.30005 6.23078 7.44803 6.52062 7.48056 6.83378C7.5131 7.14695 7.42787 7.46101 7.24148 7.71477C6.87048 8.37077 6.16348 8.70777 5.70048 8.45677L3.78448 7.41277C3.67764 7.35497 3.55229 7.34177 3.43576 7.37605C3.31923 7.41034 3.22099 7.48932 3.16248 7.59577C3.12029 7.67242 3.10054 7.75941 3.10548 7.84677C3.14585 8.51452 3.34636 9.16275 3.69006 9.73667C4.03377 10.3106 4.51057 10.7934 5.08018 11.1442C5.64979 11.495 6.29548 11.7035 6.96268 11.7522C7.62988 11.8009 8.29899 11.6882 8.91348 11.4238L12.3085 14.8188L10.8365 16.2908L10.5055 15.9598C10.3283 15.7895 10.0922 15.6944 9.84648 15.6944C9.60078 15.6944 9.36462 15.7895 9.18748 15.9598L8.73148 16.4158C8.564 16.5787 8.46537 16.7996 8.45588 17.0331C8.44639 17.2666 8.52677 17.4948 8.68048 17.6708L3.28248 23.0568C3.19571 23.1395 3.12611 23.2385 3.07768 23.3481C3.02924 23.4578 3.00292 23.5759 3.00023 23.6957C2.99754 23.8156 3.01852 23.9348 3.06198 24.0465C3.10543 24.1582 3.17051 24.2602 3.25348 24.3468L3.28248 24.3758L4.82348 25.9168C4.9061 26.0035 5.005 26.073 5.11452 26.1214C5.22404 26.1699 5.34204 26.1962 5.46176 26.199C5.58148 26.2018 5.70057 26.181 5.81223 26.1377C5.92389 26.0944 6.02592 26.0295 6.11248 25.9468L6.14148 25.9178L11.5415 20.5178C11.7175 20.6715 11.9457 20.7519 12.1791 20.7424C12.4126 20.7329 12.6335 20.6342 12.7965 20.4668L13.2525 20.0108C13.3391 19.9281 13.4086 19.8291 13.4569 19.7196C13.5053 19.61 13.5315 19.492 13.5342 19.3723C13.5369 19.2526 13.516 19.1335 13.4726 19.0219C13.4292 18.9102 13.3643 18.8083 13.2815 18.7218L13.2525 18.6928L12.9215 18.3618L14.3825 16.8668L18.8105 21.2948C18.6613 22.1718 18.7964 23.0735 19.196 23.8683C19.5957 24.663 20.2388 25.3093 21.0317 25.7127C21.8246 26.116 22.7257 26.2554 23.6034 26.1104C24.4811 25.9654 25.2894 25.5437 25.9105 24.9068C25.9902 24.8157 26.0307 24.6968 26.0232 24.576C26.0157 24.4552 25.9608 24.3423 25.8705 24.2618C25.8218 24.2189 25.766 24.1851 25.7055 24.1618L23.1375 23.4718C23.0133 23.4323 22.9001 23.3642 22.807 23.273C22.7139 23.1818 22.6435 23.0701 22.6015 22.9468C22.4695 22.602 22.4533 22.2236 22.5555 21.8688C22.7495 21.1498 23.3555 20.6418 23.8675 20.7788L26.4125 21.4638C26.55 21.4803 26.6885 21.4424 26.7984 21.3581C26.9083 21.2738 26.9808 21.1499 27.0005 21.0128C27 20.9415 26.9821 20.8715 26.9485 20.8088ZM21.3285 7.08177C21.4105 7 21.4575 6.88955 21.4595 6.77377L21.4935 5.55277L24.0835 4.01177L25.1835 5.11177L23.6735 7.69177L22.4295 7.73777C22.3143 7.74244 22.2047 7.78902 22.1215 7.86877L16.5525 13.4378L15.7665 12.6468L21.3285 7.08177ZM5.49648 25.2708L3.93248 23.7128L9.35848 18.2978L10.1455 19.0848L10.8925 19.8608L5.49648 25.2708ZM12.1775 19.7938L11.5775 19.1938L11.3415 18.9548L9.42148 17.0268L9.87748 16.5708L12.6165 19.3468L12.1775 19.7938ZM12.2635 17.7108L11.4765 16.9238L12.9475 15.4468L13.7345 16.2338L12.2635 17.7108ZM24.0965 19.9108C23.9604 19.8746 23.8203 19.8554 23.6795 19.8538C23.1947 19.8937 22.7361 20.0902 22.3728 20.4136C22.0095 20.7371 21.7612 21.1699 21.6655 21.6468C21.5108 22.1965 21.541 22.7819 21.7515 23.3128C21.8482 23.5647 22.0022 23.7907 22.2012 23.9729C22.4003 24.1552 22.639 24.2886 22.8985 24.3628L24.5985 24.8188C24.0478 25.1464 23.4128 25.3047 22.7728 25.2739C22.1327 25.243 21.5159 25.0244 20.9993 24.6452C20.4827 24.2661 20.0892 23.7433 19.8678 23.1419C19.6464 22.5406 19.607 21.8874 19.7545 21.2638C19.7718 21.1885 19.7693 21.1101 19.7472 21.0361C19.7251 20.9622 19.6842 20.8952 19.6285 20.8418L9.33548 10.5468C9.26504 10.4796 9.17468 10.4371 9.078 10.4257C8.98133 10.4144 8.88358 10.4347 8.79948 10.4838C8.38628 10.7014 7.9313 10.8281 7.46509 10.8553C6.99888 10.8826 6.53223 10.8097 6.09651 10.6417C5.66078 10.4736 5.26606 10.2143 4.93886 9.88108C4.61166 9.54786 4.35955 9.14848 4.19948 8.70977L5.24148 9.28977C5.48375 9.42523 5.7569 9.49585 6.03448 9.49477C6.45093 9.47068 6.85383 9.33801 7.20312 9.10994C7.55241 8.88188 7.83593 8.56637 8.02548 8.19477C8.33822 7.73227 8.45726 7.16563 8.35706 6.61638C8.25686 6.06713 7.94539 5.57903 7.48948 5.25677L6.15748 4.50277C6.97237 4.21171 7.86949 4.25615 8.65162 4.62631C9.43376 4.99647 10.0369 5.66206 10.3285 6.47677C10.5396 7.06599 10.5788 7.70311 10.4415 8.31377C10.4242 8.389 10.4267 8.46743 10.4488 8.5414C10.4708 8.61537 10.5118 8.68235 10.5675 8.73577L20.8775 19.0358C20.946 19.1055 21.0354 19.1511 21.1321 19.1655C21.2288 19.1799 21.3276 19.1625 21.4135 19.1158C22.157 18.7243 23.0226 18.6339 23.8309 18.8633C24.6392 19.0926 25.3284 19.6242 25.7555 20.3478L24.0965 19.9108Z" fill="#333333"/>
</svg>
