<svg xmlns="http://www.w3.org/2000/svg" width="30" height="30" viewBox="0 0 30 30">
    <path data-name="Rectangle 5314" style="fill:transparent" d="M0 0h30v30H0z"/>
    <g data-name="Group 1158">
        <path data-name="Path 1669" d="M219.121 331.121a.5.5 0 1 0-.7 0 .495.495 0 0 0 .7 0z" transform="translate(-205.428 -311.864)" style="fill:#363d43"/>
        <path data-name="Path 1670" d="M187.9 5.466A5.466 5.466 0 1 0 193.366 0a5.472 5.472 0 0 0-5.466 5.466zm9.938 0a4.472 4.472 0 1 1-4.472-4.472 4.479 4.479 0 0 1 4.472 4.472z" transform="translate(-176.562 2)" style="fill:#363d43"/>
        <path data-name="Path 1671" d="M5.7 226.956a.5.5 0 0 0 .7 0l2.41-2.375a1.5 1.5 0 0 0 .353-1.54l.517-.5a1.484 1.484 0 0 1 1.034-.417h6.6a4.46 4.46 0 0 0 3.12-1.267c.035-.035-.263.318 4.507-5.381a1.988 1.988 0 0 0-3.026-2.579l-2.932 3.011a1.988 1.988 0 0 0-1.545-.74H11.9a6.452 6.452 0 0 0-2.489-.5 6.14 6.14 0 0 0-5.6 3.175 1.482 1.482 0 0 0-1.327.412l-2.364 2.38a.5.5 0 0 0 0 .7zm3.712-11.284a5.407 5.407 0 0 1 2.186.457.459.459 0 0 0 .2.04h5.64a.994.994 0 0 1 0 1.988h-4.056a.5.5 0 1 0 0 .994h4.055a1.987 1.987 0 0 0 1.988-1.988 1.471 1.471 0 0 0-.02-.258c2.837-2.917 3.235-3.324 3.255-3.344a.992.992 0 1 1 1.515 1.282l-4.457 5.327a3.456 3.456 0 0 1-2.41.969h-6.594a2.474 2.474 0 0 0-1.724.7l-.422.407-3.891-3.896a5.129 5.129 0 0 1 4.735-2.678zm-6.226 3.3a.5.5 0 0 1 .616-.07c.084.055-.159-.174 4.3 4.283a.5.5 0 0 1 0 .7l-2.052 2.022-4.879-4.919z" transform="translate(2.025 -199.664)" style="fill:#363d43"/>
        <g data-name="Group 1163">
            <path data-name="Path 1672" d="M262.048 60h3.468a5.323 5.323 0 0 1-.348.507h-.929a1.19 1.19 0 0 1 .258.547h.994c.01 0 .02 0 .02.015-.224.333-.333.5-.338.5h-.641a1.469 1.469 0 0 1-.243.616 1.5 1.5 0 0 1-.566.472 2.286 2.286 0 0 1-.969.243 1.232 1.232 0 0 0 .229.3l1.714 2.067v.1c0 .01 0 .015-.02.015h-.755q-2.035-2.37-2.032-2.38V62.5a3.454 3.454 0 0 0 .422.025c.76 0 1.232-.248 1.416-.74a.6.6 0 0 0 .045-.224h-2.062a.013.013 0 0 1-.015-.015c.229-.333.343-.5.348-.5h1.64a.951.951 0 0 0-.547-.442 1.661 1.661 0 0 0-.522-.094h-.914v-.02a5.619 5.619 0 0 1 .347-.49z" transform="translate(-246.695 -55.019)" style="fill:#363d43"/>
        </g>
    </g>
</svg>
