<svg xmlns="http://www.w3.org/2000/svg" width="30" height="30" viewBox="0 0 30 30">
    <g data-name="Group 1377">
        <path data-name="Rectangle 5308" style="fill:transparent" d="M0 0h30v30H0z"/>
        <g data-name="Group 1167">
            <g data-name="Group 1211">
                <path data-name="Path 1708" d="M0 11.612v5.97A2.589 2.589 0 0 0 2.687 20h12.238a2.312 2.312 0 0 0 2.388-2.418v-.09l4.507 2.239a.7.7 0 0 0 .239.06 1.558 1.558 0 0 0 1.522-1.642v-7.7a1.535 1.535 0 0 0-1.491-1.643.7.7 0 0 0-.239.06L17.4 11.1a2.542 2.542 0 0 0-2.358-2.06 5.009 5.009 0 1 0-7.758-5.488A3.812 3.812 0 1 0 2.06 9.1 2.672 2.672 0 0 0 0 11.612zm22.119-1.582a.423.423 0 0 1 .269.418v7.731a.423.423 0 0 1-.269.418l-4.806-2.448v-3.7zM7.97 7.821A4.1 4.1 0 0 0 9.1 8.955H7.134a3.994 3.994 0 0 0 .836-1.134zm.269-2.806a3.836 3.836 0 1 1 3.851 3.821 3.81 3.81 0 0 1-3.7-2.925c-.03-.209-.06-.418-.09-.6a.883.883 0 0 1-.061-.296zM4.567 3.642a2.633 2.633 0 0 1 2.508 1.88c.03.209.06.418.09.6v.119a2.6 2.6 0 1 1-2.6-2.6zm11.552 13.821a1.338 1.338 0 0 1-1.343 1.343H2.537a1.338 1.338 0 0 1-1.343-1.343v-5.97a1.338 1.338 0 0 1 1.343-1.343h12.239a1.338 1.338 0 0 1 1.343 1.343z" transform="translate(3 5)" style="fill:#363d43"/>
            </g>
        </g>
    </g>
</svg>
