<svg width="30" height="30" viewBox="0 0 30 30" fill="none" xmlns="http://www.w3.org/2000/svg">
<path d="M8.45059 2.01619C8.45059 2.01619 7.91057 2.28841 7.56064 2.31322C7.21071 2.33803 7.25063 2.35275 7.04067 2.54592C6.83071 2.73892 6.52571 3.13502 6.7507 3.2192C6.97569 3.30338 7.18565 3.34291 7.50569 3.5508C7.82572 3.75869 8.16062 4.14487 7.89571 4.32299C7.63079 4.50127 7.47078 4.62498 7.5107 4.8972C7.55062 5.16943 7.64199 5.42065 7.61576 5.69535C7.58954 5.97006 7.67205 6.1371 7.88201 6.2188C8.09197 6.3005 8.44441 6.64202 8.6507 6.70139C8.85698 6.76077 9.13442 6.9761 8.89824 7.07268C8.66206 7.16927 8.40332 7.17671 8.41451 7.4625C8.4257 7.74828 8.42955 8.09741 8.15962 8.4649C7.8897 8.83238 7.50719 9.01811 7.41349 9.32242C7.31978 9.6269 7.18599 10.0055 6.84106 10.2282C6.49614 10.451 6.4761 10.4856 6.44119 10.6391C6.40611 10.7925 6.39124 11.0995 5.93124 11.1934C5.47123 11.2875 5.13132 11.4657 5.11628 11.332C5.10125 11.1984 5.06634 11.0944 4.91133 11.1192C4.75633 11.144 4.64642 11.2379 4.61134 11.3469C4.57627 11.4557 4.61635 11.4756 4.43128 11.6142C4.24638 11.7528 3.96626 12.2329 4.28129 12.4112C4.59631 12.5894 4.65627 12.4904 4.63623 12.7576C4.61619 13.0249 4.67131 13.2032 4.8512 13.2774C5.03126 13.3517 5.16121 13.3467 5.12614 13.5052C5.09106 13.6636 5.1562 13.7873 5.27112 14.0002C5.38604 14.213 5.44617 14.4408 5.31605 14.5446C5.1861 14.6487 5.02107 14.713 5.01606 14.5891C5.01105 14.4654 4.97614 14.4901 4.8061 14.5742C4.63606 14.6584 4.42109 14.6602 4.05613 14.6569C3.69116 14.6535 3.42123 14.5483 3.42123 14.6579V14.9308C3.42123 14.9308 3.06128 14.8565 3.00632 15.0199C2.95137 15.1833 3.25637 15.8664 3.85118 15.9803C4.44615 16.0941 4.836 15.8269 4.80109 15.9456C4.76618 16.0644 4.74113 16.2772 4.34108 16.3614C3.94121 16.4456 3.5111 16.3119 3.70619 16.5693C3.90112 16.8266 4.47605 17.4306 4.62103 17.6039C4.76601 17.7773 5.13098 18.0048 5.53587 17.8861C5.94076 17.7673 6.28585 17.6287 6.37571 17.3812C6.46574 17.1336 6.30071 16.995 6.43066 16.7821C6.56062 16.5693 6.69057 16.4456 6.68071 16.6485C6.67069 16.8514 6.68572 17.2722 6.80064 17.4999C6.91556 17.7276 7.02062 18.1039 6.90069 18.391C6.78076 18.6781 6.84073 18.8612 6.89568 19.2275C6.95064 19.5938 7.12068 21.3215 7.5406 22.1828C7.96052 23.0441 8.21558 23.2669 8.44057 24.0391C8.66556 24.8113 8.72553 25.1083 9.16048 25.836C9.59544 26.5637 9.5505 26.6231 9.82043 27.4993C10.0904 28.3755 10.3153 28.8506 10.9153 28.9843C11.5153 29.1179 11.4702 28.3606 11.7253 28.2121C11.9802 28.0636 12.0552 28.0042 12.3702 27.5884C12.6852 27.1726 12.4826 27.1726 12.6852 27.1726C12.8878 27.1726 13.0452 27.2692 13.0226 26.9871C13.0001 26.7049 12.8202 25.9104 13.1202 25.4353C13.4202 24.9601 13.3452 24.1137 13.2852 23.4898C13.2252 22.8662 13.0303 22.6434 13.6002 22.287C14.1701 21.9306 15.04 21.99 15.175 21.5297C15.31 21.0693 15.5799 20.7724 16.1349 20.4011C16.6898 20.0298 16.7498 19.9555 17.1248 19.5547C17.4998 19.1538 17.4998 19.0646 18.0996 18.7974C18.6996 18.5301 19.2244 18.129 19.1494 17.936C19.0744 17.743 18.6087 17.6688 19.1566 17.2826C19.7043 16.8964 19.9142 17.0153 20.2892 17.0747C20.6642 17.1341 20.8742 17.1934 20.8742 16.8817C20.8742 16.5699 20.7141 15.7688 20.5892 15.5085C20.4643 15.2482 20.3993 15.268 20.4992 15.0204C20.5992 14.7729 20.7242 14.6789 20.4992 14.6343C20.2742 14.5898 19.8843 14.3076 20.0293 14.1442C20.1743 13.9808 20.7992 13.9115 20.7442 13.6987C20.6893 13.4858 20.4693 13.4463 20.2693 13.3077C20.0694 13.1691 19.9593 13.184 20.1294 12.9463C20.2994 12.7087 20.3943 12.585 20.4843 12.6295C20.5743 12.674 20.9792 12.9414 21.1242 12.976C21.2692 13.0107 21.4892 12.7532 21.4942 13.08C21.4992 13.4066 21.3793 13.7086 21.6592 13.7185C21.9392 13.7285 22.5592 13.9016 22.9541 13.8522C23.3491 13.8027 23.754 13.7384 23.679 14.065C23.604 14.3916 23.4891 14.5352 23.169 14.758C22.849 14.9808 22.704 15.1045 22.7491 15.3668C22.794 15.6291 22.7691 15.7627 23.0491 15.8469C23.329 15.9311 23.2891 15.4013 23.379 15.2578C23.469 15.1142 23.687 15.1043 23.688 15.3964C23.689 15.6884 23.819 16.4062 23.974 16.624C24.129 16.8418 24.2739 16.7328 24.3989 16.5795C24.5238 16.4261 24.2988 16.1934 24.3989 16.0252C24.4989 15.8568 24.6239 15.6688 24.6389 15.4114C24.6539 15.1541 24.4089 14.7828 24.6038 14.8521C24.7988 14.9214 25.0887 15.2383 25.2588 14.9708C25.4288 14.7036 25.3438 14.7185 25.5137 14.4361C25.6837 14.154 25.7986 14.1242 25.7487 13.857C25.6987 13.5897 25.7737 13.4757 25.8987 13.3075C26.0236 13.1392 26.1036 13.0848 26.0787 12.9263C26.0537 12.7679 25.8838 12.5699 26.1738 12.4214C26.4637 12.2729 26.4738 12.3323 26.6436 12.1045C26.8137 11.8768 27.1335 11.7332 27.2986 11.7926C27.4636 11.852 27.7235 12.0599 27.7684 11.9807C27.8134 11.9014 27.5685 11.5945 27.6535 11.4807C27.7385 11.3669 28.0235 11.2778 27.9984 11.0748C27.9734 10.8719 27.8434 10.8026 27.6884 10.7977C27.5334 10.7927 26.9585 10.9956 27.1335 10.7036C27.3086 10.4115 27.3585 10.456 27.3335 10.3323C27.3084 10.2086 27.0834 9.95105 26.9585 9.82238C26.8336 9.69371 26.8135 9.71356 26.6385 9.87183C26.4634 10.0303 26.3736 10.1837 26.1486 10.0996C25.9236 10.0154 25.6986 9.76301 25.5736 9.91649C25.4487 10.07 25.2137 10.3027 24.8936 10.4115C24.5736 10.5203 24.4587 10.4907 24.3636 10.6887C24.2686 10.8866 24.1136 11.0945 23.7388 11.2331C23.3638 11.3717 23.1338 11.4112 23.0038 11.253C22.8739 11.0945 22.8438 11.0699 22.6589 11.0846C22.474 11.0995 22.254 11.1984 22.1289 11.0499C22.004 10.9014 22.0339 10.8716 21.874 10.8716C21.7142 10.8716 21.3591 10.9161 21.2091 11.1388C21.0591 11.3616 20.7292 11.8715 20.6941 11.6833C20.659 11.4953 20.7541 11.1041 20.5241 11.1041C20.2941 11.1041 20.1791 11.1289 20.1491 11.3467C20.119 11.5646 19.9941 11.8219 20.054 12.0347C20.114 12.2476 20.039 12.5842 19.5341 12.6189C19.0291 12.6536 18.6892 12.5347 18.2791 12.4308C17.8692 12.3268 17.2043 12.3566 17.1543 12.0844C17.1044 11.8121 16.8594 11.6438 16.6045 11.6388C16.3496 11.6338 15.7596 11.6735 15.3596 11.4853C14.9597 11.2973 13.8997 10.7231 13.5798 10.5547C13.2598 10.3863 13.0699 10.3963 13.18 10.1884C13.2899 9.98049 13.3999 9.45572 13.565 9.30224C13.73 9.14877 14.0549 9.03498 13.87 8.90631C13.6851 8.77764 12.8751 8.33209 12.5852 8.02018C12.2952 7.70826 12.3202 7.74299 12.2252 7.7974C12.1302 7.85181 12.0852 7.90143 12.0501 7.71818C12.0151 7.53494 11.7552 6.85189 11.7401 6.72819C11.7251 6.60448 12.0101 6.51037 12.0451 6.62416C12.0802 6.73794 12.1402 6.85189 12.2651 6.81716C12.3901 6.78243 12.81 6.55486 12.75 6.45083C12.6901 6.34681 12.7651 6.04994 12.5451 5.98064C12.3251 5.91135 12.2001 5.88654 12.2351 5.71834C12.2701 5.54998 12.355 5.48565 12.2651 5.23823C12.1751 4.99065 12.3201 4.93127 12.5852 4.90663C12.8501 4.88182 12.9451 4.74323 13.06 4.41163C13.1749 4.08003 13.49 3.70378 13.3051 3.49093C13.1202 3.27808 12.7502 3.20878 12.4003 3.21375C12.0503 3.21871 11.8903 3.25327 11.6603 3.41171C11.4303 3.57015 11.0204 3.62952 10.9103 3.54038C10.8004 3.45124 10.7904 3.43156 10.6103 3.32753C10.4303 3.2235 10.3554 2.98601 10.1355 2.8671C9.91547 2.74835 9.46548 2.53054 9.3205 2.33737C9.17551 2.14436 9.2455 1.94144 9.09049 2.01569C8.93549 2.08995 8.56969 1.95946 8.45059 2.01569V2.01619Z" stroke="#333333" stroke-width="0.8" stroke-miterlimit="10"/>
</svg>
