<svg width="30" height="30" viewBox="0 0 30 30" fill="none" xmlns="http://www.w3.org/2000/svg">
<rect width="30" height="30" fill=""/>
<path d="M14.4854 12.0327L14.7403 2.34392C14.7511 1.87457 15.4538 1.89087 15.443 2.36061L15.1873 12.0767L16.421 10.6588C16.727 10.3074 17.2532 10.7809 16.9472 11.132L15.1146 13.2384C14.978 13.42 14.7078 13.4283 14.5626 13.2501L12.7752 11.0573C12.48 10.6948 13.0233 10.2387 13.3181 10.6008L14.4854 12.0327ZM13.5678 7.92156C13.9936 7.73541 14.2719 8.39356 13.8462 8.57933L6.31667 11.8637L15.006 15.4058C15.0138 15.4058 15.0216 15.4054 15.0299 15.4058L23.6751 11.9493L16.0173 8.60928C15.5915 8.42541 15.8669 7.76725 16.293 7.95151L24.4476 11.5084L26.7859 8.75032L17.8708 4.9845L16.5001 6.37664C16.1721 6.70988 15.6736 6.203 16.0016 5.87013L17.5387 4.30891C17.6368 4.20996 17.7876 4.1747 17.9231 4.23195C19.0747 4.71836 27.2523 8.03416 27.5998 8.33973C27.7464 8.46863 27.7625 8.69458 27.6356 8.84358L25.0376 11.908L27.8968 14.8121C28.0819 15.0001 28.0062 15.3178 27.764 15.4035L24.9077 16.6493L24.9323 21.9771C24.9331 22.1227 24.8473 22.2485 24.7245 22.3047L14.9504 26.9663C14.8086 27.0338 14.6447 26.9963 14.544 26.8856L5.58525 23.111C5.44643 23.0629 5.34642 22.9291 5.34642 22.7717V16.6713L2.23604 15.3144C1.99385 15.2287 1.9181 14.911 2.10319 14.723L4.81204 11.971L2.16028 8.84282C2.03341 8.69383 2.04945 8.46787 2.19611 8.33897C2.53831 8.03795 10.7227 4.72822 11.8695 4.24522C12.0105 4.1857 12.1684 4.22626 12.2654 4.33545L13.9312 6.0214C14.2593 6.35313 13.7629 6.85926 13.4353 6.52791L11.9228 4.99702L3.01 8.75032L5.34754 11.5073L13.5678 7.92156ZM14.4611 26.0758L14.6488 16.881L12.4367 19.4783C12.3408 19.6004 12.1729 19.6482 12.024 19.5841L6.05097 16.9788V22.5329L14.4611 26.0762V26.0758ZM15.6131 15.9407L17.9462 18.9074L27.0303 14.9448L24.5095 12.3838L15.6131 15.9407ZM24.2282 21.7519L24.2058 16.9549L17.9861 19.6679C17.7958 19.7573 17.6428 19.6679 17.5331 19.5287L15.4374 16.8821L15.1885 26.0636L24.2278 21.7523L24.2282 21.7519ZM5.48935 12.2966L2.96969 14.8564L5.83565 16.1064L12.0639 18.8232L14.4955 15.968L5.48897 12.2966H5.48935Z" fill="#333333" stroke="#333333" stroke-width="0.3"/>
</svg>
