<svg width="30" height="30" viewBox="0 0 30 30" fill="none" xmlns="http://www.w3.org/2000/svg">
<rect width="30" height="30" fill=""/>
<path d="M25.4727 4.88418C24.2512 3.10151 23.2059 2.35251 21.4792 3.81785L20.2356 4.86785C19.4521 5.15893 18.6212 5.30098 17.7856 5.28668L17.5382 5.30651L17.2092 5.15135C16.2083 4.53306 15.0287 4.26888 13.8597 4.40118C13.5611 4.43035 13.2251 4.47001 12.8716 4.51085C11.7919 4.66959 10.702 4.74758 9.61073 4.74418C9.59219 4.71278 9.56985 4.68379 9.54423 4.65785L8.6109 3.84118C6.9029 2.35018 5.84823 3.08285 4.6034 4.84801L2.65156 7.62002C1.9926 8.3748 1.62081 9.33774 1.60156 10.3395C1.67123 10.9305 1.94721 11.4779 2.3809 11.8853L3.7179 13.052C3.9665 13.3035 4.19765 13.5717 4.40973 13.8547C4.46806 13.8803 12.5041 24.091 13.9904 24.5203C14.2091 24.6682 14.4685 24.7441 14.7324 24.7373C14.9771 24.7349 15.2175 24.6724 15.4324 24.5553C15.6988 24.4035 15.9284 24.1948 16.105 23.9442C16.2817 23.6935 16.401 23.4071 16.4544 23.1052C16.4663 23.0336 16.4752 22.9616 16.4812 22.8893C16.5957 22.9184 16.7132 22.9337 16.8312 22.9348C17.0959 22.933 17.3564 22.8678 17.5907 22.7447C17.8868 22.5798 18.1418 22.3503 18.3367 22.0731C18.5317 21.796 18.6615 21.4784 18.7166 21.144C18.7417 20.9945 18.7522 20.8429 18.7481 20.6913C18.9093 20.7496 19.0795 20.7792 19.2509 20.7788C19.5164 20.777 19.7775 20.7118 20.0127 20.5887C20.3084 20.4231 20.5631 20.1931 20.7579 19.9159C20.9528 19.6386 21.0829 19.3211 21.1386 18.9868C21.1586 18.8693 21.1692 18.7503 21.1701 18.631C21.3944 18.76 21.6486 18.828 21.9074 18.8282C22.1721 18.8266 22.4326 18.7614 22.6669 18.638C22.9627 18.4728 23.2176 18.2431 23.4127 17.966C23.6078 17.689 23.7381 17.3716 23.7939 17.0373C23.8491 16.7569 23.8449 16.468 23.7816 16.1893C23.7183 15.9106 23.5973 15.6482 23.4264 15.4192C24.604 14.8829 25.6199 14.0465 26.3722 12.9937L27.2531 12.2482C27.8617 11.8106 28.276 11.1532 28.4081 10.4153C28.4107 9.40742 28.0466 8.43295 27.3837 7.67368L25.4727 4.88418ZM5.14706 5.34035C6.36973 3.61368 6.98573 3.43401 8.1699 4.46535L8.81856 5.03118L3.81473 12.142L2.8919 11.3382C2.57181 11.0546 2.36127 10.6678 2.2969 10.245C2.33893 9.44667 2.66021 8.68849 3.20456 8.10301L5.14706 5.34035ZM22.3682 17.9263C22.2376 18.0062 22.0887 18.0512 21.9357 18.0571C21.7827 18.063 21.6308 18.0297 21.4944 17.9602L18.7761 15.5907C18.7408 15.5594 18.6992 15.5361 18.654 15.5223C18.6089 15.5086 18.5614 15.5048 18.5147 15.5111C18.4679 15.5174 18.4231 15.5337 18.3832 15.5589C18.3434 15.5841 18.3094 15.6177 18.2837 15.6572C18.2259 15.7408 18.2001 15.8425 18.211 15.9436C18.2219 16.0447 18.2688 16.1385 18.3432 16.2078L20.1364 17.7688C20.2751 17.9052 20.3769 18.0746 20.4322 18.2612C20.4875 18.4477 20.4945 18.6452 20.4526 18.8352C20.4166 19.054 20.332 19.2619 20.205 19.4436C20.078 19.6253 19.9118 19.7762 19.7187 19.8852C19.5621 19.9759 19.3814 20.0164 19.201 20.0014C19.0206 19.9864 18.8491 19.9165 18.7096 19.8012L16.9187 18.2413C16.8834 18.2101 16.8418 18.1867 16.7967 18.173C16.7516 18.1593 16.7041 18.1554 16.6573 18.1617C16.6106 18.168 16.5658 18.1844 16.5259 18.2096C16.4861 18.2348 16.4521 18.2683 16.4264 18.3078C16.3689 18.3912 16.3434 18.4924 16.3543 18.5931C16.3652 18.6937 16.4119 18.7871 16.4859 18.8562L17.7167 19.9319C17.8547 20.0687 17.9557 20.2383 18.0104 20.4248C18.065 20.6112 18.0716 20.8085 18.0294 20.9982C17.9931 21.2159 17.9083 21.4227 17.7813 21.6033C17.6542 21.7838 17.4882 21.9335 17.2956 22.0412C17.1388 22.1317 16.958 22.1721 16.7776 22.1568C16.5972 22.1416 16.4258 22.0715 16.2864 21.956L15.0602 20.8838C15.0247 20.8525 14.9829 20.8292 14.9376 20.8154C14.8923 20.8017 14.8446 20.7978 14.7977 20.8041C14.7508 20.8104 14.7058 20.8267 14.6657 20.852C14.6257 20.8772 14.5915 20.9108 14.5656 20.9503C14.5079 21.0339 14.4824 21.1355 14.4935 21.2364C14.5046 21.3373 14.5518 21.4308 14.6262 21.4998L15.7591 22.488C15.7957 22.641 15.8 22.7999 15.7719 22.9547C15.7387 23.1426 15.6647 23.321 15.555 23.4773C15.4453 23.6335 15.3027 23.7638 15.1372 23.8588C15.0095 23.9369 14.8607 23.9738 14.7113 23.9644C14.5618 23.955 14.4189 23.8998 14.3019 23.8063L13.4106 23.0282C13.2659 23.013 4.86356 13.3378 4.82273 13.2515C4.68389 13.0381 4.52781 12.8363 4.35606 12.6483L9.38206 5.50834C10.5717 5.58128 11.7658 5.51275 12.9392 5.30418C13.2892 5.26452 13.6229 5.22601 13.9157 5.19451C14.6604 5.08108 15.422 5.18942 16.1056 5.50601C15.8763 5.55112 15.6511 5.61512 15.4324 5.69735L12.2579 6.98068C12.1191 7.00401 11.9907 7.02385 11.8752 7.04135C11.0842 7.15801 10.6071 7.23501 10.3586 7.94084C10.2767 8.22377 10.2659 8.5225 10.3269 8.81063C10.388 9.09875 10.519 9.3674 10.7086 9.59284C11.0674 10.0172 11.545 10.3246 12.0799 10.4756C12.6148 10.6265 13.1826 10.6141 13.7104 10.4398L15.5024 10.1843C16.2339 10.077 16.8639 10.6428 17.4717 11.1877L22.7871 15.8298C22.9259 15.9662 23.0278 16.1356 23.0831 16.3221C23.1384 16.5087 23.1453 16.7062 23.1032 16.8962C23.0652 17.1118 22.9795 17.3162 22.8524 17.4945C22.7252 17.6727 22.5598 17.8203 22.3682 17.9263ZM22.8256 14.8533L17.9104 10.567C17.605 10.2011 17.2228 9.9069 16.7909 9.70527C16.359 9.50364 15.888 9.39954 15.4114 9.40035L13.5856 9.66285C13.1806 9.81498 12.7389 9.84009 12.3194 9.73483C11.8998 9.62957 11.5222 9.39894 11.2371 9.07368C11.1334 8.95992 11.0582 8.82321 11.0176 8.67475C10.9771 8.5263 10.9723 8.37034 11.0037 8.21968C11.0936 7.96652 11.1834 7.92918 11.9639 7.80784C12.0934 7.78801 12.2346 7.76701 12.3909 7.74134C12.4136 7.7367 12.4359 7.73007 12.4574 7.72151L15.6646 6.43001C16.3643 6.21368 17.0907 6.09589 17.8229 6.08002C18.8064 6.08584 19.7786 5.87137 20.6684 5.45235L25.6641 12.7067C24.9183 13.6586 23.9383 14.4007 22.8197 14.8604M26.8167 11.6298L26.1786 12.1723L21.2412 5.00435L21.8969 4.44901C23.0939 3.43168 23.7146 3.62185 24.9069 5.36835L26.8191 8.15668C27.3561 8.7507 27.6685 9.51378 27.7022 10.3138C27.5848 10.8487 27.2687 11.319 26.8179 11.6298H26.8167Z" fill="#333333"/>
<path d="M22.8256 14.8533L17.9104 10.567C17.605 10.2011 17.2228 9.9069 16.7909 9.70527C16.359 9.50364 15.888 9.39954 15.4114 9.40035L13.5856 9.66285C13.1806 9.81498 12.7389 9.84009 12.3194 9.73483C11.8998 9.62957 11.5222 9.39894 11.2371 9.07368C11.1334 8.95992 11.0582 8.82321 11.0176 8.67475C10.9771 8.5263 10.9723 8.37034 11.0037 8.21968C11.0936 7.96652 11.1834 7.92918 11.9639 7.80784C12.0934 7.78801 12.2346 7.76701 12.3909 7.74134C12.4136 7.7367 12.4359 7.73007 12.4574 7.72151L15.6646 6.43001C16.3643 6.21368 17.0907 6.09589 17.8229 6.08002C18.8064 6.08584 19.7786 5.87137 20.6684 5.45235L25.6641 12.7067C24.9183 13.6586 23.9383 14.4007 22.8197 14.8604M25.4727 4.88418C24.2512 3.10151 23.2059 2.35251 21.4792 3.81785L20.2356 4.86785C19.4521 5.15893 18.6212 5.30098 17.7856 5.28668L17.5382 5.30651L17.2092 5.15135C16.2083 4.53306 15.0287 4.26888 13.8597 4.40118C13.5611 4.43035 13.2251 4.47001 12.8716 4.51085C11.7919 4.66959 10.702 4.74758 9.61073 4.74418C9.59219 4.71278 9.56985 4.68379 9.54423 4.65785L8.6109 3.84118C6.9029 2.35018 5.84823 3.08285 4.6034 4.84801L2.65156 7.62002C1.9926 8.3748 1.62081 9.33774 1.60156 10.3395C1.67123 10.9305 1.94721 11.4779 2.3809 11.8853L3.7179 13.052C3.9665 13.3035 4.19765 13.5717 4.40973 13.8547C4.46806 13.8803 12.5041 24.091 13.9904 24.5203C14.2091 24.6682 14.4685 24.7441 14.7324 24.7373C14.9771 24.7349 15.2175 24.6724 15.4324 24.5553C15.6988 24.4035 15.9284 24.1948 16.105 23.9442C16.2817 23.6935 16.401 23.4071 16.4544 23.1052C16.4663 23.0336 16.4752 22.9616 16.4812 22.8893C16.5957 22.9184 16.7132 22.9337 16.8312 22.9348C17.0959 22.933 17.3564 22.8678 17.5907 22.7447C17.8868 22.5798 18.1418 22.3503 18.3367 22.0731C18.5317 21.796 18.6615 21.4784 18.7166 21.144C18.7417 20.9945 18.7522 20.8429 18.7481 20.6913C18.9093 20.7496 19.0795 20.7792 19.2509 20.7788C19.5164 20.777 19.7775 20.7118 20.0127 20.5887C20.3084 20.4231 20.5631 20.1931 20.7579 19.9159C20.9528 19.6386 21.0829 19.3211 21.1386 18.9868C21.1586 18.8693 21.1692 18.7503 21.1701 18.631C21.3944 18.76 21.6486 18.828 21.9074 18.8282C22.1721 18.8266 22.4326 18.7614 22.6669 18.638C22.9627 18.4728 23.2176 18.2431 23.4127 17.966C23.6078 17.689 23.7381 17.3716 23.7939 17.0373C23.8491 16.7569 23.8449 16.468 23.7816 16.1893C23.7183 15.9106 23.5973 15.6482 23.4264 15.4192C24.604 14.8829 25.6199 14.0465 26.3722 12.9937L27.2531 12.2482C27.8617 11.8106 28.276 11.1532 28.4081 10.4153C28.4107 9.40742 28.0466 8.43295 27.3837 7.67368L25.4727 4.88418ZM5.14706 5.34035C6.36973 3.61368 6.98573 3.43401 8.1699 4.46535L8.81856 5.03118L3.81473 12.142L2.8919 11.3382C2.57181 11.0546 2.36127 10.6678 2.2969 10.245C2.33893 9.44667 2.66021 8.68849 3.20456 8.10301L5.14706 5.34035ZM22.3682 17.9263C22.2376 18.0062 22.0887 18.0512 21.9357 18.0571C21.7827 18.063 21.6308 18.0297 21.4944 17.9602L18.7761 15.5907C18.7408 15.5594 18.6992 15.5361 18.654 15.5223C18.6089 15.5086 18.5614 15.5048 18.5147 15.5111C18.4679 15.5174 18.4231 15.5337 18.3832 15.5589C18.3434 15.5841 18.3094 15.6177 18.2837 15.6572C18.2259 15.7408 18.2001 15.8425 18.211 15.9436C18.2219 16.0447 18.2688 16.1385 18.3432 16.2078L20.1364 17.7688C20.2751 17.9052 20.3769 18.0746 20.4322 18.2612C20.4875 18.4477 20.4945 18.6452 20.4526 18.8352C20.4166 19.054 20.332 19.2619 20.205 19.4436C20.078 19.6253 19.9118 19.7762 19.7187 19.8852C19.5621 19.9759 19.3814 20.0164 19.201 20.0014C19.0206 19.9864 18.8491 19.9165 18.7096 19.8012L16.9187 18.2413C16.8834 18.2101 16.8418 18.1867 16.7967 18.173C16.7516 18.1593 16.7041 18.1554 16.6573 18.1617C16.6106 18.168 16.5658 18.1844 16.5259 18.2096C16.4861 18.2348 16.4521 18.2683 16.4264 18.3078C16.3689 18.3912 16.3434 18.4924 16.3543 18.5931C16.3652 18.6937 16.4119 18.7871 16.4859 18.8562L17.7167 19.9319C17.8547 20.0687 17.9557 20.2383 18.0104 20.4248C18.065 20.6112 18.0716 20.8085 18.0294 20.9982C17.9931 21.2159 17.9083 21.4227 17.7813 21.6033C17.6542 21.7838 17.4882 21.9335 17.2956 22.0412C17.1388 22.1317 16.958 22.1721 16.7776 22.1568C16.5972 22.1416 16.4258 22.0715 16.2864 21.956L15.0602 20.8838C15.0247 20.8525 14.9829 20.8292 14.9376 20.8154C14.8923 20.8017 14.8446 20.7978 14.7977 20.8041C14.7508 20.8104 14.7058 20.8267 14.6657 20.852C14.6257 20.8772 14.5915 20.9108 14.5656 20.9503C14.5079 21.0339 14.4824 21.1355 14.4935 21.2364C14.5046 21.3373 14.5518 21.4308 14.6262 21.4998L15.7591 22.488C15.7957 22.641 15.8 22.7999 15.7719 22.9547C15.7387 23.1426 15.6647 23.321 15.555 23.4773C15.4453 23.6335 15.3027 23.7638 15.1372 23.8588C15.0095 23.9369 14.8607 23.9738 14.7113 23.9644C14.5618 23.955 14.4189 23.8998 14.3019 23.8063L13.4106 23.0282C13.2659 23.013 4.86356 13.3378 4.82273 13.2515C4.68389 13.0381 4.52781 12.8363 4.35606 12.6483L9.38206 5.50834C10.5717 5.58128 11.7658 5.51275 12.9392 5.30418C13.2892 5.26452 13.6229 5.22601 13.9157 5.19451C14.6604 5.08108 15.422 5.18942 16.1056 5.50601C15.8763 5.55112 15.6511 5.61512 15.4324 5.69735L12.2579 6.98068C12.1191 7.00401 11.9907 7.02385 11.8752 7.04135C11.0842 7.15801 10.6071 7.23501 10.3586 7.94084C10.2767 8.22377 10.2659 8.5225 10.3269 8.81063C10.388 9.09875 10.519 9.3674 10.7086 9.59284C11.0674 10.0172 11.545 10.3246 12.0799 10.4756C12.6148 10.6265 13.1826 10.6141 13.7104 10.4398L15.5024 10.1843C16.2339 10.077 16.8639 10.6428 17.4717 11.1877L22.7871 15.8298C22.9259 15.9662 23.0278 16.1356 23.0831 16.3221C23.1384 16.5087 23.1453 16.7062 23.1032 16.8962C23.0652 17.1118 22.9795 17.3162 22.8524 17.4945C22.7252 17.6727 22.5598 17.8203 22.3682 17.9263ZM26.8167 11.6298L26.1786 12.1723L21.2412 5.00435L21.8969 4.44901C23.0939 3.43168 23.7146 3.62185 24.9069 5.36835L26.8191 8.15668C27.3561 8.7507 27.6685 9.51378 27.7022 10.3138C27.5848 10.8487 27.2687 11.319 26.8179 11.6298H26.8167Z" stroke="#333333" stroke-width="0.5"/>
</svg>
