<svg xmlns="http://www.w3.org/2000/svg" width="30" height="30" viewBox="0 0 30 30">
    <g data-name="spa&amp;salon">
        <path data-name="Rectangle 5319" style="fill:transparent" d="M0 0h30v30H0z"/>
        <g data-name="Group 1166">
            <g data-name="Group 1209">
                <g data-name="Group 1208">
                    <path data-name="Path 1706" d="M22.746 15.933a2.544 2.544 0 0 0 .333-.275 3.441 3.441 0 0 0 .9-2.584 3.064 3.064 0 0 0-2.418-3.207 2.643 2.643 0 0 0 .8-.53 2.025 2.025 0 0 0 .574-1.5c-.015-.863-.883-1.515-2.173-1.952a2.082 2.082 0 0 0 .628-.412 1.74 1.74 0 0 0 .5-1.29C21.888 2.212 19.426 0 16.136 0s-5.757 2.212-5.757 4.183a1.729 1.729 0 0 0 .5 1.285 2.094 2.094 0 0 0 .633.407 3.506 3.506 0 0 0-2.02 1.354 3.134 3.134 0 0 0-5.327 1.559 3.139 3.139 0 0 0-3.075 5.331 3.138 3.138 0 0 0 2.084 5.493 3.08 3.08 0 0 0 1-.186 3.128 3.128 0 0 0 5.61 1.241 15.578 15.578 0 0 0 6.876 1.3c3.6 0 6.674-.765 7.842-1.952a1.648 1.648 0 0 0 .53-1.2 2.735 2.735 0 0 0-2.286-2.882zm.186-2.854a2.455 2.455 0 0 1-.593 1.839 3.635 3.635 0 0 1-2.261.745c-.559 0-1.138 0-1.736.015-.5.01-1.015.015-1.535.025a23.462 23.462 0 0 1-2.491-.108 3.15 3.15 0 0 0-.329-.731c-.025-.039-.049-.083-.074-.123a3.078 3.078 0 0 0-.52-.613s0-.01.015-.015a3.206 3.206 0 0 0 .373-.4l.074-.1a2.9 2.9 0 0 0 .24-.392c.015-.034.034-.064.049-.1a3.275 3.275 0 0 0 .2-.53 3.2 3.2 0 0 0 .093-.569.865.865 0 0 0 0-.113 3.446 3.446 0 0 0-.01-.451c0-.054-.015-.113-.025-.167a2.734 2.734 0 0 0-.088-.4c-.02-.059-.034-.118-.059-.177a.973.973 0 0 0-.044-.128 16.291 16.291 0 0 1 1.913-.113c4.352-.013 6.809.11 6.809 2.606zm-11.5-8.9c0-1.422 2.1-3.139 4.708-3.139s4.708 1.716 4.708 3.139a.7.7 0 0 1-.191.544c-.52.52-2.123.51-3.82.5h-1.388c-1.7.01-3.3.015-3.82-.5a.653.653 0 0 1-.201-.54zm4.708 2.094c3.707 0 5.748 1.04 5.752 1.579a.989.989 0 0 1-.27.75c-.755.77-3.041.809-5.154.809h-.343a16.137 16.137 0 0 1-3.139-.294c-.015-.01-.029-.01-.044-.02a3.129 3.129 0 0 0-1.574-.461c-.682-.294-.991-.608-.991-.794.001-.53 2.032-1.565 5.759-1.565zM9.49 11.79c.054-.1.108-.191.162-.289l.1-.191c.054-.1.1-.2.147-.294.025-.054.054-.108.078-.162.069-.147.128-.294.181-.436.01-.025.015-.049.025-.074.044-.128.083-.25.113-.368a.115.115 0 0 0 .01-.039 2.11 2.11 0 0 1 .961-.25 2.024 2.024 0 0 1 1.216.358 2.012 2.012 0 0 1 .638.677 2.1 2.1 0 0 1-.422 2.609 1.741 1.741 0 0 1-.343.245l-.034.015c-.039.02-.088.034-.132.054a2.335 2.335 0 0 1-.436.118 7.626 7.626 0 0 1-1.27.088h-.034c-.226 0-.456 0-.687-.015h-.027a21.809 21.809 0 0 1-1.53-.123c.015-.02.029-.044.044-.064.064-.083.128-.172.191-.27.029-.044.059-.083.088-.128.064-.088.123-.177.186-.27l.1-.147c.074-.113.152-.226.226-.343A.625.625 0 0 1 9.1 12.4c.093-.142.181-.289.27-.436a1.294 1.294 0 0 0 .116-.17zM7.24 7.322a2.1 2.1 0 0 1 2.094 2.094 1.172 1.172 0 0 1-.025.177 2.409 2.409 0 0 1-.113.427v.02a7.577 7.577 0 0 1-.549 1.128c-.015.029-.034.054-.049.083-.1.172-.206.343-.314.515-.02.029-.034.059-.054.083-.118.186-.24.368-.358.544 0 0 0 .01-.01.015-.167.24-.324.466-.476.672a21.903 21.903 0 0 0-.956-1.942s0-.015-.01-.02a8.83 8.83 0 0 0-.26-.441c-.02-.029-.039-.064-.059-.093-.083-.132-.167-.255-.25-.378-.015-.025-.034-.049-.049-.074-.1-.142-.2-.275-.3-.4L5.464 9.7a3.4 3.4 0 0 0-.284-.3c-.01-.01-.015-.02-.025-.025A2.085 2.085 0 0 1 7.24 7.322zm-5.885 3.4a2.1 2.1 0 0 1 2.859-.762 1.319 1.319 0 0 1 .137.108 11.508 11.508 0 0 1 2.06 3.423h-.074c-.108-.01-.221-.025-.343-.034-.044 0-.083 0-.128-.01-.128-.01-.255-.02-.392-.034-.034 0-.069 0-.108-.01a19.15 19.15 0 0 0-1.094-.049h-.68c-.142 0-.284.015-.422.025-.034 0-.074 0-.108.01a4.842 4.842 0 0 0-.49.064c-.02 0-.034 0-.054.01-.137.025-.27.054-.392.088-.01 0-.025 0-.039.01a2.091 2.091 0 0 1-.732-2.836zm3.658 5.7a9.116 9.116 0 0 0-.186.329l-.088.162c-.059.113-.113.226-.167.333-.02.044-.044.088-.064.128-.069.152-.132.3-.186.451 0 .02-.015.039-.02.059-.049.132-.083.255-.118.378 0 .01-.01.025-.01.034a2.093 2.093 0 0 1-2.06-3.644 1.472 1.472 0 0 1 .177-.069 2.565 2.565 0 0 1 .407-.108c.015 0 .029 0 .044-.01a8.323 8.323 0 0 1 1.5-.083c.226 0 .456.01.691.025.147.01.294.015.436.025.226.015.441.034.657.059.083.01.162.015.24.025a7.899 7.899 0 0 0-.137.191c-.025.034-.049.074-.078.108-.044.064-.088.128-.137.191s-.1.147-.152.221-.074.113-.113.167c-.078.113-.152.23-.23.348l-.054.083c-.093.147-.186.294-.275.446a1.1 1.1 0 0 1-.077.158zm4.1 3.305v.015a2.09 2.09 0 0 1-3.967-.922 1.265 1.265 0 0 1 .025-.177 2.123 2.123 0 0 1 .118-.432v-.01a7.746 7.746 0 0 1 .554-1.143c.01-.015.015-.029.025-.044.108-.186.226-.378.343-.569l.029-.044c.289-.456.593-.888.863-1.255.118.27.26.584.422.912.157.329.333.672.525 1.01.01.02.025.039.034.059.078.137.157.265.235.4.025.039.049.083.074.123.078.123.152.235.23.348l.064.093c.1.142.2.275.3.4a.213.213 0 0 0 .029.034c.093.108.186.211.28.3l.02.02a1.909 1.909 0 0 1-.198.889zm-1.04-4.978h.049c.118.015.235.025.368.039.034 0 .074 0 .108.01.128.01.265.025.4.034.044 0 .088 0 .132.01.132.01.265.015.4.025.059 0 .118 0 .177.01.123 0 .25.01.373.01H10.533c.152 0 .3 0 .451-.015l.221-.015q.228-.015.441-.044c.064-.01.128-.015.186-.025a4.035 4.035 0 0 0 .476-.1l.069-.015a1.981 1.981 0 0 1 .633.593s0 .01.01.015a2.138 2.138 0 0 1 .333.848 1.893 1.893 0 0 1 .029.24v.015a2.167 2.167 0 0 1-.054.539.611.611 0 0 1-.02.078 1.844 1.844 0 0 1-.2.5.612.612 0 0 0-.039.059 2 2 0 0 1-.206.284c-.01.01-.02.015-.029.025a2.1 2.1 0 0 1-1.751.662h-.049a2.635 2.635 0 0 1-.329-.074.408.408 0 0 1-.074-.02 2.225 2.225 0 0 1-.383-.172 1.318 1.318 0 0 1-.137-.108 11.544 11.544 0 0 1-2.033-3.401zm15.673 4.526c-.775.79-3.325 1.643-7.091 1.643a14.954 14.954 0 0 1-6.419-1.177c.02-.069.039-.137.054-.206 0-.029.02-.059.025-.088.049.015.1.025.147.039l.118.029a3.178 3.178 0 0 0 .711.093H11.365a3.451 3.451 0 0 0 .77-.1 3.029 3.029 0 0 0 .677-.28c.054-.029.1-.064.157-.1a2.915 2.915 0 0 0 .461-.348c.049-.044.1-.088.147-.137a3.162 3.162 0 0 0 .471-.6 3.17 3.17 0 0 0 .132-.294 3.031 3.031 0 0 0 .265-.9c.726-.074 1.466-.1 2.192-.113.27 0 .535 0 .8.01.392 0 .78.01 1.148.01.535 0 1.045-.015 1.525-.049 2.575.029 3.845.363 3.884 2.133a.8.8 0 0 1-.242.443z" transform="translate(1.973 4)" style="fill:#363d43"/>
                    <path data-name="Path 1707" d="M262.255 44.665a.535.535 0 0 0 .358-.142 3.525 3.525 0 0 1 2.387-.874.525.525 0 1 0 0-1.049 4.574 4.574 0 0 0-3.1 1.157.525.525 0 0 0 .358.907z" transform="translate(-246.898 -36.511)" style="fill:#363d43"/>
                </g>
            </g>
        </g>
    </g>
</svg>
