<svg xmlns="http://www.w3.org/2000/svg" width="30" height="30" viewBox="0 0 30 30">
    <g data-name="Group 1255">
        <path data-name="Rectangle 5316" style="fill:transparent" d="M0 0h30v30H0z"/>
        <g data-name="Group 1160">
            <g data-name="Group 1181">
                <g data-name="Group 1180">
                    <path data-name="Path 1680" d="M112.5 58.4a7.7 7.7 0 1 0 7.7 7.7 7.71 7.71 0 0 0-7.7-7.7zm0 14.388a6.686 6.686 0 1 1 6.686-6.686 6.694 6.694 0 0 1-6.686 6.686z" transform="translate(-97.472 -50.432)" style="fill:#363d43"/>
                </g>
            </g>
            <g data-name="Group 1183">
                <g data-name="Group 1182">
                    <path data-name="Path 1681" d="M163.951 110.5a.513.513 0 0 0-.691-.2l-.025.015a.506.506 0 0 0-.178.676 4.175 4.175 0 1 1-3.666-2.176 4.134 4.134 0 0 1 .661.051.506.506 0 0 0 .575-.4.221.221 0 0 1 .005-.025.5.5 0 0 0-.422-.58 5.5 5.5 0 0 0-.819-.066 5.182 5.182 0 1 0 4.561 2.7z" transform="translate(-144.361 -97.32)" style="fill:#363d43"/>
                </g>
            </g>
            <g data-name="Group 1185">
                <g data-name="Group 1184">
                    <path data-name="Path 1682" d="M304.064 123.524a.4.4 0 0 0-.076-.061.283.283 0 0 0-.086-.046.534.534 0 0 0-.1-.03.435.435 0 0 0-.2 0 .354.354 0 0 0-.1.03c-.031.015-.061.031-.086.046s-.056.041-.076.061a.4.4 0 0 0-.061.076.283.283 0 0 0-.046.086.286.286 0 0 0-.02.061c-.005.01-.005.025-.01.036a.622.622 0 0 0-.01.1.687.687 0 0 0 .01.1.354.354 0 0 0 .03.1c.015.031.03.061.046.086a.5.5 0 0 0 .061.076.883.883 0 0 0 .076.066.282.282 0 0 0 .086.046.539.539 0 0 0 .1.031.626.626 0 0 0 .1.01.689.689 0 0 0 .1-.01.307.307 0 0 0 .1-.031.556.556 0 0 0 .076-.041.018.018 0 0 0 .01-.005.476.476 0 0 0 .076-.066.806.806 0 0 0 .061-.076.283.283 0 0 0 .046-.086.539.539 0 0 0 .03-.1.628.628 0 0 0 .01-.1.538.538 0 0 0-.147-.359z" transform="translate(-285.785 -112.104)" style="fill:#363d43"/>
                </g>
            </g>
            <g data-name="Group 1187">
                <g data-name="Group 1186">
                    <path data-name="Path 1683" d="M408.451 19.624 406.8 6.2a7.137 7.137 0 0 0-1.9-4.032l-.046-.051a1.121 1.121 0 0 0-1.927.9l2.09 17.022c.005.056.015.107.025.163a1.729 1.729 0 0 0 1.688 1.357 1.508 1.508 0 0 0 .214-.015 1.744 1.744 0 0 0 1.291-.859c.025-.046.051-.1.076-.147a.844.844 0 0 0 .061-.158 1.64 1.64 0 0 0 .079-.756zM403.942 2.9a.094.094 0 0 1 .058-.11.1.1 0 0 1 .051-.01.1.1 0 0 1 .071.036l.046.046a6.259 6.259 0 0 1 .88 1.19 6.058 6.058 0 0 1 .747 2.268l.88 7.159-1.413.173zm3.458 17.2a.711.711 0 0 1-1.368-.173l-.646-5.262 1.413-.173.646 5.262a.667.667 0 0 1-.045.346z" transform="translate(-380.436 3.327)" style="fill:#363d43"/>
                </g>
            </g>
            <g data-name="Group 1189">
                <g data-name="Group 1188">
                    <path data-name="Path 1684" d="M6.278.592a.5.5 0 0 0-.564.442L5.251 4.8a1.212 1.212 0 0 1-1.134 1.07l-.336-.041.611-4.952A.5.5 0 0 0 3.95.313a.5.5 0 0 0-.57.437L2.77 5.7l-.336-.041a1.216 1.216 0 0 1-.844-1.307L2.053.587A.507.507 0 0 0 1.047.465L.584 4.233A2.22 2.22 0 0 0 1.758 6.48L.03 17.609v.005a1.77 1.77 0 0 0 1.53 2.018h.01a1.58 1.58 0 0 0 .219.015 1.767 1.767 0 0 0 1.759-1.607L4.57 6.831a2.224 2.224 0 0 0 1.688-1.9l.463-3.767a.512.512 0 0 0-.443-.572zM2.541 17.945a.759.759 0 0 1-.844.681h-.01a.756.756 0 0 1-.508-.29.748.748 0 0 1-.147-.564L2.745 6.734l.4.051.4.051z" transform="translate(1.99 4.981)" style="fill:#363d43"/>
                </g>
            </g>
        </g>
    </g>
</svg>
