<svg xmlns="http://www.w3.org/2000/svg" width="30" height="30" viewBox="0 0 30 30">
    <path data-name="Rectangle 5323" style="fill:transparent" d="M0 0h30v30H0z"/>
    <path data-name="Path 1600" d="M10.493 26a4.889 4.889 0 0 0 4.978-4.8v-.66a2.965 2.965 0 0 0-.444-5.894h-.216a2.966 2.966 0 0 0-.478 5.894v.66a3.752 3.752 0 0 1-3.84 3.658 3.756 3.756 0 0 1-3.84-3.658v-5.628l4.46-3.59a2.824 2.824 0 0 0 1.058-2.219V2.606a.556.556 0 0 0-.313-.506L9.9 1.115V.569a.569.569 0 0 0-1.138 0v1.792a.569.569 0 0 0 1.138.023l1.138.569v6.815A1.705 1.705 0 0 1 10.4 11.1l-4.316 3.465-4.318-3.47a1.683 1.683 0 0 1-.632-1.331V2.947L2.176 2.4A.561.561 0 0 0 3.3 2.361V.569a.569.569 0 0 0-1.138 0v.552L.292 2.1a.553.553 0 0 0-.3.506v7.162a2.812 2.812 0 0 0 1.064 2.219l4.455 3.579V21.2a4.893 4.893 0 0 0 4.982 4.8zm2.5-8.392a1.819 1.819 0 0 1 1.821-1.821h.216a1.821 1.821 0 1 1 0 3.641h-.216a1.819 1.819 0 0 1-1.823-1.82z" transform="translate(6.004 2)" style="fill:#363d43"/>
</svg>
